<?xml version="1.0" encoding="UTF-8" standalone="no"?>
<!DOCTYPE svg PUBLIC "-//W3C//DTD SVG 1.1//EN" "http://www.w3.org/Graphics/SVG/1.1/DTD/svg11.dtd">
<svg width="100%" height="100%" viewBox="0 0 439 358" version="1.1" xmlns="http://www.w3.org/2000/svg" xmlns:xlink="http://www.w3.org/1999/xlink" xml:space="preserve" xmlns:serif="http://www.serif.com/" style="fill-rule:evenodd;clip-rule:evenodd;stroke-linejoin:round;stroke-miterlimit:2;">
    <g transform="matrix(1,0,0,1,-267,-223.876)">
        <g transform="matrix(5.3416e-17,-0.87235,0.879931,5.38802e-17,267,574.588)">
            <rect x="187.615" y="0" width="214.416" height="214.416" style="fill:rgb(123,53,240);fill-opacity:0.82;"/>
        </g>
        <g transform="matrix(5.13234e-17,-0.838175,0.981814,6.01188e-17,238.39,560.849)">
            <rect x="294.823" y="214.417" width="107.208" height="107.208" style="fill:rgb(211,2,215);fill-opacity:0.89;"/>
        </g>
        <g transform="matrix(5.60432e-17,-0.915255,0.915255,5.60432e-17,232.848,581.508)">
            <rect x="187.615" y="214.417" width="107.208" height="107.208" style="fill:rgb(229,16,102);fill-opacity:0.53;"/>
        </g>
        <g transform="matrix(5.80672e-17,-0.948309,0.948309,5.80672e-17,223.345,569.037)">
            <rect x="187.615" y="321.625" width="107.208" height="107.208" style="fill:rgb(234,7,133);fill-opacity:0.82;"/>
        </g>
        <g transform="matrix(5.52108e-17,-0.901661,0.901661,5.52108e-17,276.301,578.725)">
            <rect x="80.406" y="214.417" width="107.208" height="107.208" style="fill:rgb(255,63,141);fill-opacity:0.78;"/>
        </g>
        <g transform="matrix(4.59256e-17,-0.750021,0.731066,4.47649e-17,220.069,611.359)">
            <rect x="80.406" y="214.417" width="107.208" height="107.208" style="fill:rgb(255,83,63);fill-opacity:0.78;"/>
        </g>
        <g transform="matrix(5.99265e-17,-0.978674,0.978674,5.99265e-17,261.298,581)">
            <rect x="80.406" y="53.604" width="107.208" height="107.208" style="fill:rgb(250,27,148);fill-opacity:0.58;"/>
        </g>
        <g transform="matrix(5.92182e-17,-0.967107,0.967107,5.92182e-17,222.688,565.083)">
            <rect x="134.01" y="321.625" width="53.604" height="53.604" style="fill:rgb(244,21,99);fill-opacity:0.84;"/>
        </g>
        <g transform="matrix(5.58155e-17,-0.911537,0.911537,5.58155e-17,261.298,581)">
            <rect x="134.01" y="160.813" width="53.604" height="53.604" style="fill:rgb(254,46,152);fill-opacity:0.58;"/>
        </g>
        <g transform="matrix(5.88037e-17,-0.960337,0.960337,5.88037e-17,261.298,581)">
            <rect x="80.406" y="321.625" width="53.604" height="53.604" style="fill:rgb(255,35,87);fill-opacity:0.87;"/>
        </g>
        <g transform="matrix(5.5124e-17,-0.900243,0.900243,5.5124e-17,261.298,581)">
            <rect x="26.802" y="268.021" width="53.604" height="53.604" style="fill:rgb(254,111,46);fill-opacity:0.58;"/>
        </g>
        <g transform="matrix(5.54754e-17,-0.905982,0.905982,5.54754e-17,231.362,629.404)">
            <rect x="348.427" y="321.625" width="53.604" height="53.604" style="fill:rgb(225,3,152);fill-opacity:0.77;"/>
        </g>
        <g transform="matrix(5.52103e-17,-0.901652,0.901652,5.52103e-17,273.491,574.396)">
            <rect x="134.01" y="0" width="53.604" height="53.604" style="fill:rgb(171,12,246);fill-opacity:0.75;"/>
        </g>
        <g transform="matrix(5.95274e-17,-0.972156,0.972156,5.95274e-17,220.176,569.177)">
            <rect x="187.614" y="428.833" width="53.604" height="53.604" style="fill:rgb(242,6,136);fill-opacity:0.8;"/>
        </g>
        <g transform="matrix(5.98348e-17,-0.977177,0.977177,5.98348e-17,191.698,579.476)">
            <rect x="241.219" y="428.833" width="53.604" height="53.604" style="fill:rgb(241,6,153);fill-opacity:0.79;"/>
        </g>
        <g transform="matrix(5.63969e-17,-0.921032,0.921032,5.63969e-17,261.298,581)">
            <rect x="134.01" y="428.833" width="53.604" height="53.604" style="fill:rgb(243,11,119);fill-opacity:0.74;"/>
        </g>
        <g transform="matrix(5.60676e-17,-0.915653,0.915653,5.60676e-17,261.298,581)">
            <rect x="160.812" y="402.031" width="26.802" height="26.802" style="fill:rgb(244,11,119);fill-opacity:0.51;"/>
        </g>
        <g transform="matrix(5.77499e-17,-0.943127,0.943127,5.77499e-17,261.298,581)">
            <rect x="53.604" y="321.625" width="26.802" height="26.802" style="fill:rgb(255,75,66);fill-opacity:0.8;"/>
        </g>
        <g transform="matrix(5.82909e-17,-0.951963,0.951963,5.82909e-17,150.7,497.117)">
            <rect x="26.802" y="321.625" width="26.802" height="26.802" style="fill:rgb(250,37,66);fill-opacity:0.78;"/>
        </g>
        <g transform="matrix(6.02257e-17,-0.98356,0.98356,6.02257e-17,201.492,528.628)">
            <rect x="134.01" y="482.438" width="26.802" height="26.802" style="fill:rgb(238,12,103);fill-opacity:0.56;"/>
        </g>
        <g transform="matrix(5.87597e-17,-0.959618,0.959618,5.87597e-17,261.298,581)">
            <rect x="294.823" y="428.833" width="26.802" height="26.802" style="fill:rgb(240,6,159);fill-opacity:0.65;"/>
        </g>
        <g transform="matrix(6.00602e-17,-0.980858,0.980858,6.00602e-17,261.298,581)">
            <rect x="294.823" y="402.031" width="26.802" height="26.802" style="fill:rgb(218,6,238);fill-opacity:0.59;"/>
        </g>
        <g transform="matrix(5.88533e-17,-0.961147,0.961147,5.88533e-17,257.169,583.116)">
            <rect x="321.625" y="321.625" width="26.802" height="26.802" style="fill:rgb(183,4,224);fill-opacity:0.88;"/>
        </g>
        <g transform="matrix(5.98282e-17,-0.977069,0.977069,5.98282e-17,265.595,553.324)">
            <rect x="107.208" y="187.615" width="26.802" height="26.802" style="fill:rgb(252,90,40);fill-opacity:0.71;"/>
        </g>
        <g transform="matrix(6.05706e-17,-0.989193,0.989193,6.05706e-17,247.016,558.688)">
            <rect x="80.406" y="187.615" width="26.802" height="26.802" style="fill:rgb(251,146,36);fill-opacity:0.81;"/>
        </g>
        <g transform="matrix(5.73503e-17,-0.936601,0.936601,5.73503e-17,261.298,581)">
            <rect x="53.604" y="214.417" width="26.802" height="26.802" style="fill:rgb(252,133,40);fill-opacity:0.71;"/>
        </g>
        <g transform="matrix(5.70051e-17,-0.930964,0.930964,5.70051e-17,261.298,581)">
            <rect x="0" y="294.823" width="26.802" height="26.802" style="fill:rgb(251,129,22);fill-opacity:0.71;"/>
        </g>
        <g transform="matrix(5.64559e-17,-0.921995,0.921995,5.64559e-17,238.755,572.33)">
            <rect x="53.604" y="134.01" width="26.802" height="26.802" style="fill:rgb(247,182,21);fill-opacity:0.97;"/>
        </g>
    </g>
</svg>
